name rise49.25peak52.1432fall72.8391.mot
datacolumns 19
datarows 33
range 11.27995900000000 11.33328600000000
endheader
time	ground_force1_vx	ground_force1_vy	ground_force1_vz	ground_force1_px	ground_force1_py	ground_force1_pz	ground_force2_vx	ground_force2_vy	ground_force2_vz	ground_force2_px	ground_force2_py	ground_force2_pz	ground_torque1_x	ground_torque1_y	ground_torque1_z	ground_torque2_x	ground_torque2_y	ground_torque2_z	
11.27995900000000	15.44763300000000	717.50518399999999	39.53352100000000	0.22839000000000	0.00000000000000	0.10108900000000	0.00000000000000	0.00000000000000	0.00000000000000	0.00000000000000	0.00000000000000	0.00000000000000	0.00000000000000	15.48733400000000	0.00000000000000	0.00000000000000	0.00000000000000	0.00000000000000	
11.28161900000000	15.01434100000000	718.59868800000004	39.55340800000000	0.22745100000000	0.00000000000000	0.10102800000000	0.00000000000000	0.00000000000000	0.00000000000000	0.00000000000000	0.00000000000000	0.00000000000000	0.00000000000000	15.53769700000000	0.00000000000000	0.00000000000000	0.00000000000000	0.00000000000000	
11.28330000000000	14.57099200000000	719.69548299999997	39.57629200000000	0.22648100000000	0.00000000000000	0.10096900000000	0.00000000000000	0.00000000000000	0.00000000000000	0.00000000000000	0.00000000000000	0.00000000000000	0.00000000000000	15.58992900000000	0.00000000000000	0.00000000000000	0.00000000000000	0.00000000000000	
11.28495800000000	14.11753900000000	720.79389900000001	39.60196600000000	0.22547900000000	0.00000000000000	0.10091300000000	0.00000000000000	0.00000000000000	0.00000000000000	0.00000000000000	0.00000000000000	0.00000000000000	0.00000000000000	15.64399800000000	0.00000000000000	0.00000000000000	0.00000000000000	0.00000000000000	
11.28662000000000	13.65397000000000	721.89234599999997	39.63022500000000	0.22444800000000	0.00000000000000	0.10086000000000	0.00000000000000	0.00000000000000	0.00000000000000	0.00000000000000	0.00000000000000	0.00000000000000	0.00000000000000	15.69987800000000	0.00000000000000	0.00000000000000	0.00000000000000	0.00000000000000	
11.28829400000000	13.18030500000000	722.98931800000003	39.66086800000000	0.22338800000000	0.00000000000000	0.10080900000000	0.00000000000000	0.00000000000000	0.00000000000000	0.00000000000000	0.00000000000000	0.00000000000000	0.00000000000000	15.75754100000000	0.00000000000000	0.00000000000000	0.00000000000000	0.00000000000000	
11.28995800000000	12.69659300000000	724.08339799999999	39.69369800000000	0.22230000000000	0.00000000000000	0.10076000000000	0.00000000000000	0.00000000000000	0.00000000000000	0.00000000000000	0.00000000000000	0.00000000000000	0.00000000000000	15.81696600000000	0.00000000000000	0.00000000000000	0.00000000000000	0.00000000000000	
11.29162400000000	12.20291800000000	725.17326000000003	39.72852000000000	0.22118700000000	0.00000000000000	0.10071300000000	0.00000000000000	0.00000000000000	0.00000000000000	0.00000000000000	0.00000000000000	0.00000000000000	0.00000000000000	15.87813100000000	0.00000000000000	0.00000000000000	0.00000000000000	0.00000000000000	
11.29329200000000	11.69939200000000	726.25766899999996	39.76514600000000	0.22005100000000	0.00000000000000	0.10066900000000	0.00000000000000	0.00000000000000	0.00000000000000	0.00000000000000	0.00000000000000	0.00000000000000	0.00000000000000	15.94101800000000	0.00000000000000	0.00000000000000	0.00000000000000	0.00000000000000	
11.29495800000000	11.18615500000000	727.33548299999995	39.80339100000000	0.21889200000000	0.00000000000000	0.10062700000000	0.00000000000000	0.00000000000000	0.00000000000000	0.00000000000000	0.00000000000000	0.00000000000000	0.00000000000000	16.00560900000000	0.00000000000000	0.00000000000000	0.00000000000000	0.00000000000000	
11.29661900000000	10.66337900000000	728.40565900000001	39.84307600000000	0.21771300000000	0.00000000000000	0.10058700000000	0.00000000000000	0.00000000000000	0.00000000000000	0.00000000000000	0.00000000000000	0.00000000000000	0.00000000000000	16.07188800000000	0.00000000000000	0.00000000000000	0.00000000000000	0.00000000000000	
11.29829200000000	10.13126000000000	729.46724900000004	39.88403100000000	0.21651600000000	0.00000000000000	0.10054800000000	0.00000000000000	0.00000000000000	0.00000000000000	0.00000000000000	0.00000000000000	0.00000000000000	0.00000000000000	16.13983800000000	0.00000000000000	0.00000000000000	0.00000000000000	0.00000000000000	
11.29995600000000	9.59002100000000	730.51940400000001	39.92608800000000	0.21530300000000	0.00000000000000	0.10051100000000	0.00000000000000	0.00000000000000	0.00000000000000	0.00000000000000	0.00000000000000	0.00000000000000	0.00000000000000	16.20944200000000	0.00000000000000	0.00000000000000	0.00000000000000	0.00000000000000	
11.30162400000000	9.03991100000000	731.56137200000001	39.96909100000000	0.21407600000000	0.00000000000000	0.10047600000000	0.00000000000000	0.00000000000000	0.00000000000000	0.00000000000000	0.00000000000000	0.00000000000000	0.00000000000000	16.28068300000000	0.00000000000000	0.00000000000000	0.00000000000000	0.00000000000000	
11.30328800000000	8.48120200000000	732.59250199999997	40.01288800000000	0.21283700000000	0.00000000000000	0.10044200000000	0.00000000000000	0.00000000000000	0.00000000000000	0.00000000000000	0.00000000000000	0.00000000000000	0.00000000000000	16.35354400000000	0.00000000000000	0.00000000000000	0.00000000000000	0.00000000000000	
11.30495800000000	7.91418600000000	733.61224000000004	40.05733900000000	0.21158900000000	0.00000000000000	0.10040900000000	0.00000000000000	0.00000000000000	0.00000000000000	0.00000000000000	0.00000000000000	0.00000000000000	0.00000000000000	16.42800400000000	0.00000000000000	0.00000000000000	0.00000000000000	0.00000000000000	
11.30662500000000	7.33917700000000	734.62013100000001	40.10230900000000	0.21033300000000	0.00000000000000	0.10037700000000	0.00000000000000	0.00000000000000	0.00000000000000	0.00000000000000	0.00000000000000	0.00000000000000	0.00000000000000	16.50404300000000	0.00000000000000	0.00000000000000	0.00000000000000	0.00000000000000	
11.30829100000000	6.75651100000000	735.61581600000000	40.14767700000000	0.20907300000000	0.00000000000000	0.10034600000000	0.00000000000000	0.00000000000000	0.00000000000000	0.00000000000000	0.00000000000000	0.00000000000000	0.00000000000000	16.58163600000000	0.00000000000000	0.00000000000000	0.00000000000000	0.00000000000000	
11.30995200000000	6.16653600000000	736.59903299999996	40.19332700000000	0.20780900000000	0.00000000000000	0.10031700000000	0.00000000000000	0.00000000000000	0.00000000000000	0.00000000000000	0.00000000000000	0.00000000000000	0.00000000000000	16.66075900000000	0.00000000000000	0.00000000000000	0.00000000000000	0.00000000000000	
11.31162300000000	5.56962200000000	737.56961300000000	40.23915700000000	0.20654500000000	0.00000000000000	0.10028700000000	0.00000000000000	0.00000000000000	0.00000000000000	0.00000000000000	0.00000000000000	0.00000000000000	0.00000000000000	16.74138100000000	0.00000000000000	0.00000000000000	0.00000000000000	0.00000000000000	
11.31330000000000	4.96614900000000	738.52747999999997	40.28507300000000	0.20528100000000	0.00000000000000	0.10025900000000	0.00000000000000	0.00000000000000	0.00000000000000	0.00000000000000	0.00000000000000	0.00000000000000	0.00000000000000	16.82347000000000	0.00000000000000	0.00000000000000	0.00000000000000	0.00000000000000	
11.31495900000000	4.35651300000000	739.47264800000005	40.33099400000000	0.20402100000000	0.00000000000000	0.10023000000000	0.00000000000000	0.00000000000000	0.00000000000000	0.00000000000000	0.00000000000000	0.00000000000000	0.00000000000000	16.90699100000000	0.00000000000000	0.00000000000000	0.00000000000000	0.00000000000000	
11.31662100000000	3.74112100000000	740.40521899999999	40.37684900000000	0.20276700000000	0.00000000000000	0.10020200000000	0.00000000000000	0.00000000000000	0.00000000000000	0.00000000000000	0.00000000000000	0.00000000000000	0.00000000000000	16.99190300000000	0.00000000000000	0.00000000000000	0.00000000000000	0.00000000000000	
11.31829100000000	3.12039000000000	741.32537800000000	40.42257900000000	0.20151900000000	0.00000000000000	0.10017500000000	0.00000000000000	0.00000000000000	0.00000000000000	0.00000000000000	0.00000000000000	0.00000000000000	0.00000000000000	17.07816100000000	0.00000000000000	0.00000000000000	0.00000000000000	0.00000000000000	
11.31995600000000	2.49474700000000	742.23339099999998	40.46813800000000	0.20028000000000	0.00000000000000	0.10014700000000	0.00000000000000	0.00000000000000	0.00000000000000	0.00000000000000	0.00000000000000	0.00000000000000	0.00000000000000	17.16571700000000	0.00000000000000	0.00000000000000	0.00000000000000	0.00000000000000	
11.32162100000000	1.86462400000000	743.12959999999998	40.51348900000000	0.19905100000000	0.00000000000000	0.10011900000000	0.00000000000000	0.00000000000000	0.00000000000000	0.00000000000000	0.00000000000000	0.00000000000000	0.00000000000000	17.25451800000000	0.00000000000000	0.00000000000000	0.00000000000000	0.00000000000000	
11.32329200000000	1.23046200000000	744.01442399999996	40.55861200000000	0.19783400000000	0.00000000000000	0.10009100000000	0.00000000000000	0.00000000000000	0.00000000000000	0.00000000000000	0.00000000000000	0.00000000000000	0.00000000000000	17.34450400000000	0.00000000000000	0.00000000000000	0.00000000000000	0.00000000000000	
11.32495600000000	0.59270500000000	744.88834799999995	40.60349300000000	0.19663000000000	0.00000000000000	0.10006300000000	0.00000000000000	0.00000000000000	0.00000000000000	0.00000000000000	0.00000000000000	0.00000000000000	0.00000000000000	17.43561200000000	0.00000000000000	0.00000000000000	0.00000000000000	0.00000000000000	
11.32662200000000	-0.04819900000000	745.75192100000004	40.64813600000000	0.19544100000000	0.00000000000000	0.10003500000000	0.00000000000000	0.00000000000000	0.00000000000000	0.00000000000000	0.00000000000000	0.00000000000000	0.00000000000000	17.52777300000000	0.00000000000000	0.00000000000000	0.00000000000000	0.00000000000000	
11.32828800000000	-0.69179900000000	746.60575400000005	40.69255400000000	0.19426800000000	0.00000000000000	0.10000700000000	0.00000000000000	0.00000000000000	0.00000000000000	0.00000000000000	0.00000000000000	0.00000000000000	0.00000000000000	17.62091300000000	0.00000000000000	0.00000000000000	0.00000000000000	0.00000000000000	
11.32995800000000	-1.33764200000000	747.45051200000000	40.73677200000000	0.19311100000000	0.00000000000000	0.09997800000000	0.00000000000000	0.00000000000000	0.00000000000000	0.00000000000000	0.00000000000000	0.00000000000000	0.00000000000000	17.71495100000000	0.00000000000000	0.00000000000000	0.00000000000000	0.00000000000000	
11.33162200000000	-1.98527700000000	748.28690700000004	40.78082800000000	0.19197100000000	0.00000000000000	0.09994800000000	0.00000000000000	0.00000000000000	0.00000000000000	0.00000000000000	0.00000000000000	0.00000000000000	0.00000000000000	17.80980400000000	0.00000000000000	0.00000000000000	0.00000000000000	0.00000000000000	
11.33328600000000	-2.63425100000000	749.11569999999995	40.82477200000000	0.19084900000000	0.00000000000000	0.09991900000000	0.00000000000000	0.00000000000000	0.00000000000000	0.00000000000000	0.00000000000000	0.00000000000000	0.00000000000000	17.90538000000000	0.00000000000000	0.00000000000000	0.00000000000000	0.00000000000000	
